<mxfile host="app.diagrams.net" modified="2023-04-26T14:15:00.531Z" agent="Mozilla/5.0 (Windows NT 10.0; Win64; x64) AppleWebKit/537.36 (KHTML, like Gecko) Chrome/112.0.0.0 Safari/537.36" etag="ne9ZFuIV1uuOkNHJnM8C" version="21.2.0" type="device">
  <diagram name="Страница 1" id="ls6F7Qaaq48JcFFMsS1A">
    <mxGraphModel dx="1103" dy="698" grid="1" gridSize="10" guides="1" tooltips="1" connect="1" arrows="1" fold="1" page="1" pageScale="1" pageWidth="827" pageHeight="1169" math="0" shadow="0">
      <root>
        <mxCell id="0" />
        <mxCell id="1" parent="0" />
        <mxCell id="FQMFOxBSS4_F4biAlc2z-72" style="edgeStyle=orthogonalEdgeStyle;rounded=0;orthogonalLoop=1;jettySize=auto;html=1;exitX=0;exitY=0.25;exitDx=0;exitDy=0;entryX=0.998;entryY=0.501;entryDx=0;entryDy=0;entryPerimeter=0;" edge="1" parent="1" source="FQMFOxBSS4_F4biAlc2z-1" target="FQMFOxBSS4_F4biAlc2z-52">
          <mxGeometry relative="1" as="geometry" />
        </mxCell>
        <mxCell id="FQMFOxBSS4_F4biAlc2z-1" value="Music app" style="swimlane;fontStyle=0;childLayout=stackLayout;horizontal=1;startSize=30;horizontalStack=0;resizeParent=1;resizeParentMax=0;resizeLast=0;collapsible=1;marginBottom=0;whiteSpace=wrap;html=1;" vertex="1" parent="1">
          <mxGeometry x="630" y="48" width="140" height="120" as="geometry" />
        </mxCell>
        <mxCell id="FQMFOxBSS4_F4biAlc2z-70" value="Open()" style="text;strokeColor=none;fillColor=none;align=left;verticalAlign=middle;spacingLeft=4;spacingRight=4;overflow=hidden;points=[[0,0.5],[1,0.5]];portConstraint=eastwest;rotatable=0;whiteSpace=wrap;html=1;" vertex="1" parent="FQMFOxBSS4_F4biAlc2z-1">
          <mxGeometry y="30" width="140" height="30" as="geometry" />
        </mxCell>
        <mxCell id="FQMFOxBSS4_F4biAlc2z-56" value="Interface" style="text;strokeColor=none;fillColor=none;align=left;verticalAlign=middle;spacingLeft=4;spacingRight=4;overflow=hidden;points=[[0,0.5],[1,0.5]];portConstraint=eastwest;rotatable=0;whiteSpace=wrap;html=1;" vertex="1" parent="FQMFOxBSS4_F4biAlc2z-1">
          <mxGeometry y="60" width="140" height="30" as="geometry" />
        </mxCell>
        <mxCell id="FQMFOxBSS4_F4biAlc2z-11" value="Sound" style="text;strokeColor=none;fillColor=none;align=left;verticalAlign=middle;spacingLeft=4;spacingRight=4;overflow=hidden;points=[[0,0.5],[1,0.5]];portConstraint=eastwest;rotatable=0;whiteSpace=wrap;html=1;" vertex="1" parent="FQMFOxBSS4_F4biAlc2z-1">
          <mxGeometry y="90" width="140" height="30" as="geometry" />
        </mxCell>
        <mxCell id="FQMFOxBSS4_F4biAlc2z-36" style="edgeStyle=orthogonalEdgeStyle;rounded=0;orthogonalLoop=1;jettySize=auto;html=1;" edge="1" parent="1" source="FQMFOxBSS4_F4biAlc2z-5">
          <mxGeometry relative="1" as="geometry">
            <mxPoint x="360" y="339" as="targetPoint" />
            <Array as="points">
              <mxPoint x="170" y="399" />
              <mxPoint x="360" y="399" />
            </Array>
          </mxGeometry>
        </mxCell>
        <mxCell id="FQMFOxBSS4_F4biAlc2z-5" value="Play" style="swimlane;fontStyle=0;childLayout=stackLayout;horizontal=1;startSize=30;horizontalStack=0;resizeParent=1;resizeParentMax=0;resizeLast=0;collapsible=1;marginBottom=0;whiteSpace=wrap;html=1;" vertex="1" parent="1">
          <mxGeometry x="100" y="489" width="140" height="90" as="geometry" />
        </mxCell>
        <mxCell id="FQMFOxBSS4_F4biAlc2z-6" value="PlaySound()" style="text;strokeColor=none;fillColor=none;align=left;verticalAlign=middle;spacingLeft=4;spacingRight=4;overflow=hidden;points=[[0,0.5],[1,0.5]];portConstraint=eastwest;rotatable=0;whiteSpace=wrap;html=1;" vertex="1" parent="FQMFOxBSS4_F4biAlc2z-5">
          <mxGeometry y="30" width="140" height="30" as="geometry" />
        </mxCell>
        <mxCell id="FQMFOxBSS4_F4biAlc2z-43" value="UpdateState()" style="text;strokeColor=none;fillColor=none;align=left;verticalAlign=middle;spacingLeft=4;spacingRight=4;overflow=hidden;points=[[0,0.5],[1,0.5]];portConstraint=eastwest;rotatable=0;whiteSpace=wrap;html=1;" vertex="1" parent="FQMFOxBSS4_F4biAlc2z-5">
          <mxGeometry y="60" width="140" height="30" as="geometry" />
        </mxCell>
        <mxCell id="FQMFOxBSS4_F4biAlc2z-35" style="edgeStyle=orthogonalEdgeStyle;rounded=0;orthogonalLoop=1;jettySize=auto;html=1;" edge="1" parent="1" source="FQMFOxBSS4_F4biAlc2z-25">
          <mxGeometry relative="1" as="geometry">
            <mxPoint x="360" y="339" as="targetPoint" />
          </mxGeometry>
        </mxCell>
        <mxCell id="FQMFOxBSS4_F4biAlc2z-25" value="Pause" style="swimlane;fontStyle=0;childLayout=stackLayout;horizontal=1;startSize=30;horizontalStack=0;resizeParent=1;resizeParentMax=0;resizeLast=0;collapsible=1;marginBottom=0;whiteSpace=wrap;html=1;" vertex="1" parent="1">
          <mxGeometry x="290" y="489" width="140" height="90" as="geometry" />
        </mxCell>
        <mxCell id="FQMFOxBSS4_F4biAlc2z-26" value="PauseSound()" style="text;strokeColor=none;fillColor=none;align=left;verticalAlign=middle;spacingLeft=4;spacingRight=4;overflow=hidden;points=[[0,0.5],[1,0.5]];portConstraint=eastwest;rotatable=0;whiteSpace=wrap;html=1;" vertex="1" parent="FQMFOxBSS4_F4biAlc2z-25">
          <mxGeometry y="30" width="140" height="30" as="geometry" />
        </mxCell>
        <mxCell id="FQMFOxBSS4_F4biAlc2z-44" value="UpdateState()" style="text;strokeColor=none;fillColor=none;align=left;verticalAlign=middle;spacingLeft=4;spacingRight=4;overflow=hidden;points=[[0,0.5],[1,0.5]];portConstraint=eastwest;rotatable=0;whiteSpace=wrap;html=1;" vertex="1" parent="FQMFOxBSS4_F4biAlc2z-25">
          <mxGeometry y="60" width="140" height="30" as="geometry" />
        </mxCell>
        <mxCell id="FQMFOxBSS4_F4biAlc2z-37" style="edgeStyle=orthogonalEdgeStyle;rounded=0;orthogonalLoop=1;jettySize=auto;html=1;" edge="1" parent="1" source="FQMFOxBSS4_F4biAlc2z-29">
          <mxGeometry relative="1" as="geometry">
            <mxPoint x="360" y="339" as="targetPoint" />
            <Array as="points">
              <mxPoint x="550" y="399" />
              <mxPoint x="360" y="399" />
            </Array>
          </mxGeometry>
        </mxCell>
        <mxCell id="FQMFOxBSS4_F4biAlc2z-29" value="Switch" style="swimlane;fontStyle=0;childLayout=stackLayout;horizontal=1;startSize=30;horizontalStack=0;resizeParent=1;resizeParentMax=0;resizeLast=0;collapsible=1;marginBottom=0;whiteSpace=wrap;html=1;" vertex="1" parent="1">
          <mxGeometry x="490" y="469" width="140" height="120" as="geometry" />
        </mxCell>
        <mxCell id="FQMFOxBSS4_F4biAlc2z-30" value="SwitchSound()" style="text;strokeColor=none;fillColor=none;align=left;verticalAlign=middle;spacingLeft=4;spacingRight=4;overflow=hidden;points=[[0,0.5],[1,0.5]];portConstraint=eastwest;rotatable=0;whiteSpace=wrap;html=1;" vertex="1" parent="FQMFOxBSS4_F4biAlc2z-29">
          <mxGeometry y="30" width="140" height="30" as="geometry" />
        </mxCell>
        <mxCell id="FQMFOxBSS4_F4biAlc2z-40" value="GetNextSound()" style="text;strokeColor=none;fillColor=none;align=left;verticalAlign=middle;spacingLeft=4;spacingRight=4;overflow=hidden;points=[[0,0.5],[1,0.5]];portConstraint=eastwest;rotatable=0;whiteSpace=wrap;html=1;" vertex="1" parent="FQMFOxBSS4_F4biAlc2z-29">
          <mxGeometry y="60" width="140" height="30" as="geometry" />
        </mxCell>
        <mxCell id="FQMFOxBSS4_F4biAlc2z-45" value="UpdateState()" style="text;strokeColor=none;fillColor=none;align=left;verticalAlign=middle;spacingLeft=4;spacingRight=4;overflow=hidden;points=[[0,0.5],[1,0.5]];portConstraint=eastwest;rotatable=0;whiteSpace=wrap;html=1;" vertex="1" parent="FQMFOxBSS4_F4biAlc2z-29">
          <mxGeometry y="90" width="140" height="30" as="geometry" />
        </mxCell>
        <mxCell id="FQMFOxBSS4_F4biAlc2z-62" style="edgeStyle=orthogonalEdgeStyle;rounded=0;orthogonalLoop=1;jettySize=auto;html=1;entryX=0.5;entryY=0;entryDx=0;entryDy=0;" edge="1" parent="1" source="FQMFOxBSS4_F4biAlc2z-52" target="FQMFOxBSS4_F4biAlc2z-55">
          <mxGeometry relative="1" as="geometry" />
        </mxCell>
        <mxCell id="FQMFOxBSS4_F4biAlc2z-52" value="Check State" style="html=1;whiteSpace=wrap;aspect=fixed;shape=isoRectangle;" vertex="1" parent="1">
          <mxGeometry x="285" y="50" width="150" height="90" as="geometry" />
        </mxCell>
        <mxCell id="FQMFOxBSS4_F4biAlc2z-54" style="edgeStyle=orthogonalEdgeStyle;rounded=0;orthogonalLoop=1;jettySize=auto;html=1;" edge="1" parent="1" source="FQMFOxBSS4_F4biAlc2z-29">
          <mxGeometry relative="1" as="geometry">
            <mxPoint x="360" y="339" as="targetPoint" />
            <mxPoint x="550" y="469" as="sourcePoint" />
            <Array as="points">
              <mxPoint x="550" y="399" />
              <mxPoint x="360" y="399" />
            </Array>
          </mxGeometry>
        </mxCell>
        <mxCell id="FQMFOxBSS4_F4biAlc2z-55" value="State" style="swimlane;fontStyle=0;childLayout=stackLayout;horizontal=1;startSize=30;horizontalStack=0;resizeParent=1;resizeParentMax=0;resizeLast=0;collapsible=1;marginBottom=0;whiteSpace=wrap;html=1;" vertex="1" parent="1">
          <mxGeometry x="290" y="220" width="140" height="120" as="geometry" />
        </mxCell>
        <mxCell id="FQMFOxBSS4_F4biAlc2z-3" value="Play()&lt;span style=&quot;white-space: pre;&quot;&gt;	&lt;/span&gt;" style="text;strokeColor=none;fillColor=none;align=left;verticalAlign=middle;spacingLeft=4;spacingRight=4;overflow=hidden;points=[[0,0.5],[1,0.5]];portConstraint=eastwest;rotatable=0;whiteSpace=wrap;html=1;" vertex="1" parent="FQMFOxBSS4_F4biAlc2z-55">
          <mxGeometry y="30" width="140" height="30" as="geometry" />
        </mxCell>
        <mxCell id="FQMFOxBSS4_F4biAlc2z-4" value="Pause()" style="text;strokeColor=none;fillColor=none;align=left;verticalAlign=middle;spacingLeft=4;spacingRight=4;overflow=hidden;points=[[0,0.5],[1,0.5]];portConstraint=eastwest;rotatable=0;whiteSpace=wrap;html=1;" vertex="1" parent="FQMFOxBSS4_F4biAlc2z-55">
          <mxGeometry y="60" width="140" height="30" as="geometry" />
        </mxCell>
        <mxCell id="FQMFOxBSS4_F4biAlc2z-9" value="Switch()" style="text;strokeColor=none;fillColor=none;align=left;verticalAlign=middle;spacingLeft=4;spacingRight=4;overflow=hidden;points=[[0,0.5],[1,0.5]];portConstraint=eastwest;rotatable=0;whiteSpace=wrap;html=1;" vertex="1" parent="FQMFOxBSS4_F4biAlc2z-55">
          <mxGeometry y="90" width="140" height="30" as="geometry" />
        </mxCell>
        <mxCell id="FQMFOxBSS4_F4biAlc2z-71" style="edgeStyle=orthogonalEdgeStyle;rounded=0;orthogonalLoop=1;jettySize=auto;html=1;entryX=1;entryY=0.5;entryDx=0;entryDy=0;" edge="1" parent="1" source="FQMFOxBSS4_F4biAlc2z-66" target="FQMFOxBSS4_F4biAlc2z-70">
          <mxGeometry relative="1" as="geometry" />
        </mxCell>
        <mxCell id="FQMFOxBSS4_F4biAlc2z-66" value="Open()" style="shape=note2;boundedLbl=1;whiteSpace=wrap;html=1;size=25;verticalAlign=top;align=center;" vertex="1" parent="1">
          <mxGeometry x="730" y="250" width="120" height="60" as="geometry" />
        </mxCell>
      </root>
    </mxGraphModel>
  </diagram>
</mxfile>
